<svg xmlns="http://www.w3.org/2000/svg" width="24" height="24" viewBox="0 0 24 24" fill="none">
	<circle cx="12" cy="12" r="11.5" transform="rotate(-180 12 12)" stroke="#512D6D" />
	<path fill-rule="evenodd" clip-rule="evenodd" d="M12.5331 6.53152C12.5331 6.2379 12.2951 5.99988 12.0015 5.99988C11.7078 5.99988 11.4698 6.2379 11.4698 6.53152V11.4682H6.53311C6.23949 11.4682 6.00146 11.7063 6.00146 11.9999C6.00146 12.2935 6.23949 12.5315 6.53311 12.5315H11.4698V17.4682C11.4698 17.7619 11.7078 17.9999 12.0015 17.9999C12.2951 17.9999 12.5331 17.7619 12.5331 17.4682V12.5315H17.4698C17.7634 12.5315 18.0015 12.2935 18.0015 11.9999C18.0015 11.7063 17.7634 11.4682 17.4698 11.4682H12.5331V6.53152Z" fill="#512D6D" />
</svg>
