<svg width="40" height="41" viewBox="0 0 40 41" fill="none" xmlns="http://www.w3.org/2000/svg">
<path fill-rule="evenodd" clip-rule="evenodd" d="M18.3335 3.00012C17.8732 3.00012 17.5001 3.37322 17.5001 3.83346C17.5001 4.29369 17.8732 4.66679 18.3335 4.66679C27.9932 4.66679 35.8335 12.507 35.8335 22.1668C35.8335 22.627 36.2066 23.0001 36.6668 23.0001C37.127 23.0001 37.5001 22.627 37.5001 22.1668C37.5001 11.5866 28.9137 3.00012 18.3335 3.00012ZM18.3335 6.33346C17.8732 6.33346 17.5001 6.70655 17.5001 7.16679C17.5001 7.62703 17.8732 8.00012 18.3335 8.00012C26.1627 8.00012 32.5001 14.3376 32.5001 22.1668C32.5001 22.627 32.8732 23.0001 33.3335 23.0001C33.7937 23.0001 34.1668 22.627 34.1668 22.1668C34.1668 13.4171 27.0832 6.33346 18.3335 6.33346ZM10.7186 9.79856C9.72188 8.98304 8.25671 8.89163 7.28835 9.78805L4.22275 11.7874C4.17443 11.8189 4.12951 11.8553 4.08872 11.8961C2.26365 13.7212 2.09116 16.5699 3.16699 19.6907C4.25078 22.8346 6.65334 26.461 10.3503 30.158C14.0476 33.8552 17.6731 36.2567 20.8064 37.3489C23.9112 38.4311 26.7481 38.2837 28.5441 36.4877C28.582 36.4498 28.6161 36.4085 28.6459 36.3641L30.715 33.2939C31.6387 32.3086 31.6623 30.8044 30.7221 29.8643C30.6901 29.8323 30.6556 29.803 30.6189 29.7766L25.3595 26.0006C24.3959 25.0944 22.8857 25.1558 21.9207 26.1208L19.5353 28.5744C19.2932 28.813 18.9726 28.7526 18.8493 28.6116C18.8371 28.5977 18.8245 28.5842 18.8114 28.5711L12.0733 21.833C11.8543 21.614 11.8543 21.3249 12.0733 21.1058L14.5235 18.6556C15.4885 17.6906 15.55 16.1805 14.6438 15.2169L10.8679 9.95752C10.8253 9.89823 10.7751 9.84479 10.7186 9.79856ZM8.39804 11.0328C8.64259 10.7882 9.13017 10.7072 9.5857 11.0294L13.3254 16.2383C13.3518 16.275 13.3811 16.3096 13.4131 16.3416C13.6778 16.6062 13.7231 17.099 13.345 17.4771L10.8948 19.9273C10.0249 20.7973 10.0249 22.1416 10.8948 23.0116L17.6157 29.7325C18.4479 30.6554 19.8777 30.5891 20.7172 29.7497L23.1029 27.2958C23.4805 26.9216 23.971 26.9675 24.2348 27.2313C24.2668 27.2633 24.3013 27.2926 24.3381 27.319L29.5805 31.0828C29.8117 31.355 29.8353 31.8186 29.4755 32.1783C29.4377 32.2162 29.4036 32.2575 29.3737 32.3019L27.3114 35.3621C26.1707 36.4498 24.1606 36.7531 21.355 35.7751C18.533 34.7914 15.1141 32.5648 11.5289 28.9795C7.94331 25.3939 5.71772 21.976 4.74266 19.1475C3.77588 16.3431 4.08679 14.3123 5.20992 13.1333L8.26401 11.1415C8.31233 11.11 8.35725 11.0736 8.39804 11.0328ZM18.3335 11.3335C18.3335 10.8732 18.7066 10.5001 19.1668 10.5001C25.1655 10.5001 30.0001 15.3348 30.0001 21.3335C30.0001 21.7937 29.627 22.1668 29.1668 22.1668C28.7066 22.1668 28.3335 21.7937 28.3335 21.3335C28.3335 16.2552 24.245 12.1668 19.1668 12.1668C18.7066 12.1668 18.3335 11.7937 18.3335 11.3335Z" fill="url(#paint0_linear_4463_150236)"/>
<defs>
<linearGradient id="paint0_linear_4463_150236" x1="37.5001" y1="-1.78784" x2="8.11777" y2="38.0056" gradientUnits="userSpaceOnUse">
<stop stop-color="#C81E61"/>
<stop offset="0.64254" stop-color="#70296A"/>
<stop offset="0.956026" stop-color="#512D6D"/>
<stop offset="0.998493" stop-color="#512D6D"/>
</linearGradient>
</defs>
</svg>
