<?xml version="1.0" encoding="UTF-8"?>
<svg width="90px" height="80px" viewBox="0 0 90 80" version="1.1" xmlns="http://www.w3.org/2000/svg" xmlns:xlink="http://www.w3.org/1999/xlink">
    <title>youtube-play</title>
    <g id="Campaign-Landing-V1" stroke="none" stroke-width="1" fill="none" fill-rule="evenodd">
        <g id="CLP-Desktop1" transform="translate(-1468.000000, -2841.000000)">
            <g id="youtube-play" transform="translate(1468.000000, 2841.000000)">
                <rect id="ViewBox" x="0" y="0" width="90" height="80"></rect>
                <path d="M87.9166667,22.2916667 C88.6111111,27.1527778 88.9583333,31.9444444 88.9583333,36.6666667 L88.9583333,43.3333333 L87.9166667,57.7083333 C87.3611111,61.7361111 86.1805556,64.6527778 84.375,66.4583333 C82.4305556,68.4027778 79.5138889,69.6527778 75.625,70.2083333 C71.875,70.4861111 67.3958333,70.6944444 62.1875,70.8333333 C56.9791667,70.9722222 52.7083333,71.0416667 49.375,71.0416667 L44.375,71.0416667 C28.9583333,70.9027778 18.8888889,70.625 14.1666667,70.2083333 L12.5,70 L9.79166667,69.5833333 L7.1875,68.5416667 L4.47916667,66.4583333 L2.39583333,63.0208333 L1.25,59.1666667 L0.833333333,57.7083333 C0.277777778,52.8472222 0,48.0555556 0,43.3333333 L0,36.6666667 L0.833333333,22.2916667 C1.38888889,18.2638889 2.56944444,15.3472222 4.375,13.5416667 C6.31944444,11.4583333 9.30555556,10.2083333 13.3333333,9.79166667 C17.0833333,9.51388889 21.5277778,9.30555556 26.6666667,9.16666667 C31.8055556,9.02777778 36.0416667,8.95833333 39.375,8.95833333 L44.375,8.95833333 C56.875,8.95833333 67.2916667,9.23611111 75.625,9.79166667 C79.5138889,10.2083333 82.4305556,11.4583333 84.375,13.5416667 C84.9305556,14.0972222 85.4166667,14.7569444 85.8333333,15.5208333 C86.25,16.2847222 86.5972222,17.0486111 86.875,17.8125 C87.1527778,18.5763889 87.3611111,19.3055556 87.5,20 C87.6388889,20.6944444 87.7777778,21.25 87.9166667,21.6666667 L87.9166667,22.2916667 Z" id="Path" fill-opacity="0.75" fill="#000000" fill-rule="nonzero"></path>
                <polygon id="Path" fill="#FFFFFF" points="56.0416667 41.9583333 58.9583333 40.5 35 28 35 53"></polygon>
            </g>
        </g>
    </g>
</svg>