<svg width="24" height="35" viewBox="0 0 24 35" fill="none" xmlns="http://www.w3.org/2000/svg">
<path d="M11.7917 34.1665L10.4583 32.6665C9.45833 31.3331 7.79166 29.3331 6.125 26.9998C4.29167 24.3331 2.95833 21.8331 1.95833 19.6665C0.791666 16.8331 0.125 14.3331 0.125 12.3331C0.125 5.83313 5.29166 0.83313 11.7917 0.83313C18.2917 0.83313 23.4583 5.83313 23.4583 12.3331C23.4583 14.3331 22.7917 16.6665 21.625 19.4998C20.625 21.8331 19.125 24.1665 17.4583 26.8331C15.7917 29.1665 14.2917 31.3331 13.125 32.4998L11.7917 34.1665ZM11.7917 31.4998L12.4583 30.6665C14.125 28.4998 16.4583 25.3331 18.4583 21.8331C20.625 17.9998 21.625 14.8331 21.625 12.4998C21.625 6.9998 17.2917 2.66646 11.7917 2.66646C6.29166 2.66646 1.95833 6.83313 1.95833 12.3331C1.95833 14.8331 2.95833 17.9998 5.125 21.6665C6.95833 24.9998 9.45833 28.3331 11.125 30.4998L11.7917 31.4998ZM11.7917 16.8331C9.29166 16.8331 7.29166 14.8331 7.29166 12.3331C7.29166 9.83313 9.29166 7.83313 11.7917 7.83313C14.2917 7.83313 16.2917 9.83313 16.2917 12.3331C16.2917 14.8331 14.2917 16.8331 11.7917 16.8331ZM11.7917 9.66646C10.2917 9.66646 8.95833 10.8331 8.95833 12.4998C8.95833 13.9998 10.2917 15.3331 11.7917 15.3331C13.2917 15.3331 14.625 14.1665 14.625 12.4998C14.625 10.8331 13.2917 9.66646 11.7917 9.66646Z" fill="url(#paint0_linear_4463_150243)"/>
<defs>
<linearGradient id="paint0_linear_4463_150243" x1="23.4583" y1="-3.7228" x2="-5.75586" y2="23.9983" gradientUnits="userSpaceOnUse">
<stop stop-color="#C81E61"/>
<stop offset="0.64254" stop-color="#70296A"/>
<stop offset="0.956026" stop-color="#512D6D"/>
<stop offset="0.998493" stop-color="#512D6D"/>
</linearGradient>
</defs>
</svg>
