<svg xmlns="http://www.w3.org/2000/svg" width="64" height="64" viewBox="0 0 64 64" fill="none">
	<path fill-rule="evenodd" clip-rule="evenodd" d="M29.3334 4C28.5971 4 28.0001 4.59695 28.0001 5.33333C28.0001 6.06971 28.5971 6.66667 29.3334 6.66667C44.7891 6.66667 57.3334 19.211 57.3334 34.6667C57.3334 35.403 57.9304 36 58.6668 36C59.4031 36 60.0001 35.403 60.0001 34.6667C60.0001 17.7383 46.2618 4 29.3334 4ZM29.3334 9.33333C28.5971 9.33333 28.0001 9.93029 28.0001 10.6667C28.0001 11.403 28.5971 12 29.3334 12C41.8602 12 52.0001 22.1399 52.0001 34.6667C52.0001 35.403 52.5971 36 53.3334 36C54.0698 36 54.6668 35.403 54.6668 34.6667C54.6668 20.6671 43.333 9.33333 29.3334 9.33333ZM17.1497 14.8775C15.5549 13.5727 13.2106 13.4264 11.6613 14.8607L6.7563 18.0596C6.67899 18.11 6.60712 18.1683 6.54185 18.2336C3.62175 21.1537 3.34576 25.7116 5.06708 30.7049C6.80115 35.7351 10.6452 41.5374 16.5605 47.4526C22.4761 53.3682 28.2768 57.2105 33.2902 58.958C38.2578 60.6896 42.7969 60.4537 45.6705 57.5801C45.731 57.5196 45.7856 57.4534 45.8334 57.3824L49.1439 52.47C50.6218 50.8935 50.6595 48.4869 49.1553 46.9826C49.1041 46.9314 49.0489 46.8845 48.9901 46.8423L40.5751 40.8008C39.0333 39.3508 36.617 39.4492 35.073 40.9931L31.2564 44.9188C30.869 45.3007 30.3561 45.2039 30.1588 44.9784C30.1393 44.9561 30.1191 44.9345 30.0981 44.9136L19.3173 34.1327C18.9668 33.7822 18.9668 33.3196 19.3173 32.9691L23.2376 29.0488C24.7816 27.5048 24.88 25.0886 23.43 23.5468L17.3885 15.1318C17.3204 15.037 17.2401 14.9515 17.1497 14.8775ZM13.4368 16.8523C13.828 16.461 14.6082 16.3313 15.337 16.8469L21.3206 25.1811C21.3628 25.2399 21.4097 25.2951 21.4609 25.3463C21.8843 25.7698 21.9569 26.5583 21.352 27.1632L17.4316 31.0835C16.0398 32.4754 16.0398 34.6264 17.4316 36.0183L28.1851 46.7717C29.5165 48.2485 31.8042 48.1424 33.1474 46.7993L36.9645 42.8731C37.5686 42.2744 38.3535 42.3478 38.7756 42.77C38.8268 42.8211 38.882 42.868 38.9408 42.9102L47.3287 48.9323C47.6986 49.3677 47.7364 50.1095 47.1608 50.6851C47.1002 50.7457 47.0457 50.8118 46.9979 50.8828L43.6982 55.7792C41.8731 57.5195 38.6569 58.0047 34.1679 56.44C29.6527 54.8661 24.1825 51.3034 18.4461 45.5669C12.7092 39.8301 9.14825 34.3614 7.58815 29.8358C6.04131 25.3487 6.53876 22.0995 8.33577 20.2131L13.2223 17.0263C13.2996 16.9758 13.3715 16.9175 13.4368 16.8523ZM29.3334 17.3333C29.3334 16.597 29.9304 16 30.6668 16C40.2647 16 48.0001 23.7354 48.0001 33.3333C48.0001 34.0697 47.4031 34.6667 46.6668 34.6667C45.9304 34.6667 45.3334 34.0697 45.3334 33.3333C45.3334 25.2082 38.7919 18.6667 30.6668 18.6667C29.9304 18.6667 29.3334 18.0697 29.3334 17.3333Z" fill="#512D6D">
	</path>
</svg>
